<svg width="512" height="512" viewBox="0 0 512 512" fill="none" xmlns="http://www.w3.org/2000/svg" style="image-rendering:pixelated">
  <rect width="512" height="512" rx="96" fill="#0f172a"/>
  <!-- Alt 2: "Orb Bot" — spherical head, headphones, compact body -->
  <g transform="translate(64,32) scale(24)">
    <!-- Headphones band -->
    <rect x="4" y="1" width="8" height="1" fill="#64748b"/>

    <!-- Headphones left -->
    <rect x="2" y="2" width="2" height="3" fill="#3b82f6"/>
    <rect x="2" y="2" width="2" height="1" fill="#60a5fa"/>

    <!-- Headphones right -->
    <rect x="12" y="2" width="2" height="3" fill="#3b82f6"/>
    <rect x="12" y="2" width="2" height="1" fill="#60a5fa"/>

    <!-- Head (large sphere) -->
    <rect x="5" y="1" width="6" height="7" fill="#f1f5f9"/>
    <rect x="4" y="2" width="8" height="5" fill="#f1f5f9"/>

    <!-- Visor / screen -->
    <rect x="5" y="3" width="6" height="3" fill="#0f172a" opacity="0.1"/>

    <!-- Eyes (LED style) -->
    <rect x="5" y="3" width="2" height="2" fill="#3b82f6"/>
    <rect x="9" y="3" width="2" height="2" fill="#3b82f6"/>
    <!-- Eye inner -->
    <rect x="6" y="4" width="1" height="1" fill="white"/>
    <rect x="9" y="4" width="1" height="1" fill="white"/>

    <!-- Mouth (LED bar) -->
    <rect x="6" y="6" width="4" height="1" fill="#3b82f6" opacity="0.5"/>

    <!-- Neck -->
    <rect x="7" y="8" width="2" height="1" fill="#94a3b8"/>

    <!-- Body (compact) -->
    <rect x="5" y="9" width="6" height="4" fill="#3b82f6"/>
    <rect x="4" y="10" width="8" height="2" fill="#3b82f6"/>

    <!-- Chest light -->
    <rect x="7" y="10" width="2" height="2" fill="#60a5fa"/>
    <rect x="7" y="10" width="1" height="1" fill="white" opacity="0.6"/>

    <!-- Arms -->
    <rect x="2" y="9" width="2" height="1" fill="#3b82f6"/>
    <rect x="1" y="10" width="2" height="3" fill="#3b82f6"/>
    <rect x="12" y="9" width="2" height="1" fill="#3b82f6"/>
    <rect x="13" y="10" width="2" height="3" fill="#3b82f6"/>

    <!-- Hands (open/waving) -->
    <rect x="0" y="12" width="2" height="1" fill="#60a5fa"/>
    <rect x="14" y="10" width="1" height="1" fill="#60a5fa"/>

    <!-- Legs -->
    <rect x="5" y="13" width="2" height="2" fill="#1e293b"/>
    <rect x="9" y="13" width="2" height="2" fill="#1e293b"/>

    <!-- Feet -->
    <rect x="4" y="15" width="3" height="1" fill="#334155"/>
    <rect x="9" y="15" width="3" height="1" fill="#334155"/>
  </g>
</svg>
